<svg xmlns="http://www.w3.org/2000/svg" fill="none" viewBox="0 0 556 170">
<rect width="556" height="170" fill="white"/>
<g clip-path="url(#clip0_2088:2601)">
<path d="M13.8946 123.46H67.9569C93.5924 123.46 114.374 102.767 114.374 77.2398H60.3118C34.6762 77.2398 13.8946 97.9334 13.8946 123.46Z" fill="#76A9FA"/>
<path d="M10.1235 81.5894L10.1235 150.411C35.9697 150.411 56.9222 129.458 56.9222 103.612L56.9222 34.7907C32.2212 34.9992 12.9274 56.2539 10.1235 81.5894Z" fill="#A4CAFE"/>
<path d="M112.365 27H58.3022C32.6667 27 11.885 47.6937 11.885 73.2206H65.9474C91.5829 73.2206 112.365 52.5269 112.365 27Z" fill="#1C64F2"/>
</g>
<path d="M153.005 119H167.613V90.4595H195.714V78.4158H167.613V61.9528H198.751V49.9091H153.005V119ZM222.678 49.9091H208.306V119H222.678V49.9091ZM257.603 120.012C273.324 120.012 283.107 109.25 283.107 93.2933C283.107 77.2351 273.324 66.5071 257.603 66.5071C241.882 66.5071 232.099 77.2351 232.099 93.2933C232.099 109.25 241.882 120.012 257.603 120.012ZM257.67 108.879C250.417 108.879 246.706 102.233 246.706 93.1921C246.706 84.1509 250.417 77.4712 257.67 77.4712C264.789 77.4712 268.499 84.1509 268.499 93.1921C268.499 102.233 264.789 108.879 257.67 108.879ZM301.375 119H316.556L325.462 86.4112H326.103L335.01 119H350.224L364.292 67.1818H349.786L341.892 101.795H341.453L332.952 67.1818H318.681L310.315 101.997H309.843L301.814 67.1818H287.273L301.375 119ZM372.229 119H386.398V110.701H387.039C389.029 115.019 393.381 119.843 401.747 119.843C413.555 119.843 422.765 110.499 422.765 93.1584C422.765 75.3459 413.15 66.5071 401.781 66.5071C393.111 66.5071 388.962 71.6687 387.039 75.8857H386.6V49.9091H372.229V119ZM386.296 93.0909C386.296 83.8473 390.21 77.9435 397.193 77.9435C404.311 77.9435 408.09 84.1172 408.09 93.0909C408.09 102.132 404.244 108.407 397.193 108.407C390.277 108.407 386.296 102.335 386.296 93.0909ZM432.354 119H446.726V67.1818H432.354V119ZM439.574 60.5021C443.858 60.5021 447.367 57.2298 447.367 53.2152C447.367 49.2344 443.858 45.962 439.574 45.962C435.323 45.962 431.814 49.2344 431.814 53.2152C431.814 57.2298 435.323 60.5021 439.574 60.5021ZM485.8 67.1818H476.051V54.767H461.679V67.1818H454.595V77.9773H461.679V104.966C461.612 115.12 468.527 120.147 478.952 119.708C482.663 119.574 485.294 118.831 486.745 118.359L484.484 107.665C483.776 107.8 482.258 108.137 480.908 108.137C478.041 108.137 476.051 107.058 476.051 103.077V77.9773H485.8V67.1818ZM518.22 120.012C531.04 120.012 539.676 113.771 541.7 104.156L528.408 103.279C526.958 107.226 523.247 109.284 518.456 109.284C511.271 109.284 506.716 104.527 506.716 96.8018V96.7681H542.004V92.821C542.004 75.2109 531.343 66.5071 517.647 66.5071C502.398 66.5071 492.514 77.3363 492.514 93.3271C492.514 109.756 502.263 120.012 518.22 120.012ZM506.716 87.8619C507.02 81.9581 511.507 77.2351 517.883 77.2351C524.124 77.2351 528.442 81.6882 528.476 87.8619H506.716Z" fill="#27272A"/>
<defs>
<clipPath id="clip0_2088:2601">
<rect width="104" height="139" fill="white" transform="translate(11 12)"/>
</clipPath>
</defs>
</svg>